<?xml version="1.0" encoding="UTF-8"?>
<svg width="53px" height="52px" viewBox="0 0 53 52" version="1.1" xmlns="http://www.w3.org/2000/svg" xmlns:xlink="http://www.w3.org/1999/xlink">
    <title>@1.5xFruits</title>
    <g id="Resturant/AppUser" stroke="none" stroke-width="1" fill="none" fill-rule="evenodd">
        <g id="B01" transform="translate(-131.000000, -574.000000)">
            <g id="Group-2" transform="translate(29.000000, 574.000000)">
                <g id="Group-Copy" transform="translate(102.000000, 0.000000)">
                    <g id="Fruits" transform="translate(0.500000, 0.000000)">
                        <circle id="Oval-Copy-5" fill="#FF5E57" opacity="0.200000003" cx="26" cy="26" r="26"></circle>
                        <g id="fruit" transform="translate(11.000000, 11.000000)" fill-rule="nonzero">
                            <path d="M17.7897656,12.5090039 L20.4081445,6.03 C18.7717969,4.34431641 16.4328516,3.30785156 14.1515039,3.25740234 C10.1144531,3.16681641 6.54035156,5.82035156 5.46169922,9.70734375 L7.71181641,17.2831641 C7.71181641,17.2831641 15.3032227,14.1189258 17.7897656,12.5090039 Z" id="Path" fill="#FED843"></path>
                            <path d="M17.7897656,12.5090039 L20.4081445,6.03 C18.7717969,4.34431641 16.4328516,3.30785156 14.1515039,3.25740234 C13.9346484,3.25253906 13.7192578,3.25611328 13.5053906,3.26683594 L13.5053906,15.2175586 C14.9356055,14.3178516 16.3719727,13.4269922 17.7897656,12.5090039 L17.7897656,12.5090039 Z" id="Path" fill="#FABE2C"></path>
                            <path d="M14.3511328,6.23824219 L12.6080273,6.23824219 L12.6080273,2.70726562 C12.6080273,2.17558594 12.1754883,1.74304687 11.6438672,1.74304687 L9.64476562,1.74304687 L9.64476562,-4.16333634e-16 L11.6438672,-4.16333634e-16 C13.1366602,-4.16333634e-16 14.3511328,1.21447266 14.3511328,2.70726562 L14.3511328,6.23824219 Z" id="Path" fill="#59C36A"></path>
                            <path d="M13.5053906,0.744316406 L13.5053906,6.23818359 L14.3511328,6.23818359 L14.3511328,2.70726563 C14.3511328,1.93511719 14.0257031,1.23802734 13.5053906,0.744316406 Z" id="Path" fill="#3BA455"></path>
                            <path d="M24.8102344,0.616289062 L24.1940039,0 L9.15591797,15.0380859 L9.11220703,29.6334375 C10.2926953,29.8795312 11.4789258,30 12.6560742,30 C17.173125,30 21.5425195,28.2239062 24.810293,24.9560742 C28.0610156,21.7053516 29.8512891,17.3833594 29.8512891,12.7861523 C29.8512891,8.18900391 28.0610156,3.86695313 24.8102344,0.616289062 Z" id="Path" fill="#59C36A"></path>
                            <path d="M9.15591797,15.0380859 L9.11220703,29.6334375 C10.2926953,29.8795312 11.4789258,30 12.6560742,30 C17.173125,29.9997656 21.5425195,28.2239062 24.810293,24.9560742 C25.3596094,24.4067578 25.8661523,23.8262109 26.3304492,23.2195313 L13.4525977,10.7414063 L9.15591797,15.0380859 Z" id="Path" fill="#97DE3D"></path>
                            <path d="M22.9018945,23.1727734 C25.7588672,20.3158008 27.3322852,16.5172852 27.3322852,12.4769531 C27.3322852,8.43662109 25.7588672,4.63810547 22.9018945,1.78119141 L22.6586719,1.53539063 L9.15591797,15.0380859 L9.54814453,27.3684961 C10.4391211,27.527168 11.3324414,27.6056836 12.2199023,27.6056836 C16.1898047,27.6056836 20.0299219,26.0446875 22.9018945,23.1727734 Z" id="Path" fill="#DA166A"></path>
                            <g id="Group" transform="translate(9.140625, 10.722656)" fill="#FC3E81">
                                <path d="M4.31197266,0.01875 L0.0152929688,4.31542969 L0.407519531,16.6457813 C1.29849609,16.8044531 2.19181641,16.8829688 3.07927734,16.8829688 C7.04917969,16.8827344 10.8893555,15.3219727 13.7612695,12.45 C14.3230078,11.8882617 14.8342969,11.289668 15.2946094,10.6604297 L4.31197266,0.01875 Z" id="Path"></path>
                                <path d="M9.26935547,5.69384766 C9.72521484,5.69384766 10.1619727,5.29294922 10.1408789,4.82232422 C10.1197266,4.35011719 9.75791016,3.95080078 9.26935547,3.95080078 C8.81349609,3.95080078 8.37673828,4.35169922 8.39783203,4.82232422 C8.41892578,5.29447266 8.78074219,5.69384766 9.26935547,5.69384766 Z" id="Path"></path>
                                <path d="M8.65318359,2.46234375 C9.10904297,2.46234375 9.54580078,2.06144531 9.52470703,1.59082031 C9.50355469,1.11861328 9.14173828,0.719296875 8.65318359,0.719296875 C8.19732422,0.719296875 7.76056641,1.12019531 7.78166016,1.59082031 C7.8028125,2.06302734 8.16457031,2.46234375 8.65318359,2.46234375 Z" id="Path"></path>
                            </g>
                            <path d="M15.0679102,15.910957 C15.5237695,15.910957 15.9605273,15.5100586 15.9394336,15.0394336 C15.9182812,14.5672266 15.5564648,14.1679102 15.0679102,14.1679102 C14.6120508,14.1679102 14.175293,14.5688086 14.1963867,15.0394336 C14.2174805,15.511582 14.5792969,15.910957 15.0679102,15.910957 Z" id="Path" fill="#FD7EB8"></path>
                            <path d="M17.7871289,14.9414062 C17.6285156,15.099668 17.5280859,15.3137109 17.538457,15.5449219 C17.5596094,16.0171289 17.9214258,16.4165039 18.4099805,16.4165039 C18.6419531,16.4165039 18.8685937,16.3123828 19.032832,16.1484961 L17.7871289,14.9414062 Z" id="Path" fill="#FD7EB8"></path>
                            <path d="M7.66482422,30 C3.45580078,30 0.0315820312,26.5757227 0.0315820312,22.3668164 C0.0315820312,18.1579102 3.45580078,14.7335742 7.66482422,14.7335742 C11.8738477,14.7335742 15.2980664,18.1578516 15.2980664,22.3668164 C15.2980664,26.5757812 11.8737891,30 7.66482422,30 Z" id="Path" fill="#FABE2C"></path>
                            <path d="M7.66482422,30 L7.66482422,14.7335742 C11.8737891,14.7335742 15.2980664,18.1578516 15.2980664,22.3668164 C15.2980664,26.5757812 11.8737891,30 7.66482422,30 Z" id="Path" fill="#FD9127"></path>
                            <path d="M6.08015625,19.280332 C6.53601563,19.280332 6.97277344,18.8794336 6.95167969,18.4088086 C6.93052734,17.9366016 6.56871094,17.5372852 6.08015625,17.5372852 C5.62429688,17.5372852 5.18753906,17.9381836 5.20863281,18.4088086 C5.22972656,18.8810156 5.59154297,19.280332 6.08015625,19.280332 Z" id="Path" fill="#FD9127"></path>
                            <path d="M7.66482422,21.3941016 C8.12068359,21.3941016 8.55744141,20.9932031 8.53634766,20.5225781 C8.51519531,20.0503711 8.15337891,19.6510547 7.66482422,19.6510547 C7.20896484,19.6510547 6.77220703,20.0519531 6.79330078,20.5225781 C6.81439453,20.9947852 7.17621094,21.3941016 7.66482422,21.3941016 Z" id="Path" fill="#FD9127"></path>
                            <path d="M7.66482422,21.3941016 C8.12068359,21.3941016 8.55744141,20.9932031 8.53634766,20.5225781 C8.51519531,20.0503711 8.15337891,19.6510547 7.66482422,19.6510547 L7.66482422,21.3941016 Z" id="Path" fill="#FABE2C"></path>
                            <path d="M7.65949219,14.7757031 L7.06599609,14.9124609 C7.03599609,14.919375 6.32056641,15.0817383 5.41060547,15.0716602 C4.13935547,15.0575977 3.07271484,14.7126563 2.32587891,14.074043 L2.32587891,14.0741016 C1.57904297,13.4354883 1.07261719,12.4353516 0.861328125,11.1817383 C0.710097656,10.284375 0.759316406,9.55242188 0.761484375,9.52166016 L0.804433594,8.91416016 L1.39792969,8.77740234 C1.42792969,8.77048828 2.14335938,8.608125 3.05332031,8.61820313 C4.32457031,8.63226563 5.39126953,8.97726562 6.13804688,9.61587891 C6.88488281,10.2544336 7.39125,11.2545703 7.60253906,12.5082422 C7.75376953,13.4055469 7.70449219,14.1375 7.70232422,14.1682617 L7.65949219,14.7757031 Z" id="Path" fill="#97DE3D"></path>
                            <path d="M9.29009766,19.280332 C9.74595703,19.280332 10.1827148,18.8794336 10.1616211,18.4088086 C10.1404688,17.9366016 9.77865234,17.5372852 9.29009766,17.5372852 C8.83423828,17.5372852 8.39748047,17.9381836 8.41857422,18.4088086 C8.43966797,18.8810156 8.80148437,19.280332 9.29009766,19.280332 Z" id="Path" fill="#FABE2C"></path>
                        </g>
                    </g>
                </g>
            </g>
        </g>
    </g>
</svg>