<?xml version="1.0" encoding="UTF-8"?>
<svg width="53px" height="52px" viewBox="0 0 53 52" version="1.1" xmlns="http://www.w3.org/2000/svg" xmlns:xlink="http://www.w3.org/1999/xlink">
    <title>@1.5xMeat</title>
    <g id="Resturant/AppUser" stroke="none" stroke-width="1" fill="none" fill-rule="evenodd">
        <g id="B01" transform="translate(-131.000000, -678.000000)">
            <g id="Group-2" transform="translate(29.000000, 574.000000)">
                <g id="Group-Copy-5" transform="translate(102.000000, 104.000000)">
                    <g id="Meat" transform="translate(0.500000, 0.000000)">
                        <circle id="Oval-Copy-5" fill="#FF7A89" opacity="0.200000003" cx="26" cy="26" r="26"></circle>
                        <g id="meat" transform="translate(25.500000, 27.000000) rotate(12.000000) translate(-25.500000, -27.000000) translate(10.500000, 9.000000)" fill-rule="nonzero">
                            <path d="M11.3913065,31.3952118 C16.0590961,29.3794671 12.2736987,24.0809904 18.9187898,20.9584053 C24.8051851,18.1923579 30.9591053,17.351516 29.874829,8.95819894 C28.7973578,0.617351046 13.7036164,-3.91937399 4.80264089,4.45343306 C-4.47020399,13.1760348 0.751632663,35.9898848 11.3913065,31.3952118 Z" id="Path" fill="#FF7B8B"></path>
                            <path d="M10.6098266,29.5581816 C12.9819084,28.5504845 11.9398994,21.2337214 18.0855473,19.1211746 C23.7582724,17.1711529 28.2761814,14.7622 27.9868372,10.2437669 C27.5935055,4.10231346 13.8845086,-0.642902063 6.12463596,6.81359637 C-1.44497224,14.0872193 2.20191682,33.1301782 10.6098266,29.5581816 L10.6098266,29.5581816 Z" id="Path" fill="#FF4755"></path>
                            <path d="M18.9221509,20.8912367 C12.2758952,24.035542 16.061956,29.3708036 11.3933483,31.4006402 C4.61132158,34.3492399 0.0307700307,26.0879411 0.000638088193,17.4339578 L0,17.4337456 L0.012052777,21.0309254 L0.0146760284,21.0302889 C0.121520351,28.8868793 4.22258407,36.7586763 11.3023853,35.9414087 C16.3015936,35.3643351 16.0345182,26.7648127 18.9221509,25.0118073 C24.0913033,21.8737967 30.0438154,21.4304706 29.998582,14.6146498 L30,14.6145083 L30,11 C29.8080064,17.435726 24.2554338,18.3681395 18.9221509,20.8912367 Z" id="Path" fill="#994E37"></path>
                            <path d="M18.3610017,23.7004642 C14.6104408,26.2870117 15.7619714,34.0529488 10.8036254,34.6300948 C6.89618469,35.0848801 3.90421637,32.8483689 2,29.421777 C3.8350936,33.5713573 7.06874551,36.4519946 11.455475,35.9414043 C16.4137506,35.3642584 16.148862,26.7647838 19.0128513,25.0117738 C24.1396796,21.8737549 30.0435238,21.4304276 29.9985905,14.6146594 L30,14.6145179 L30,11 C30.0052707,20.0849561 23.3107689,20.2868865 18.3610017,23.7004642 Z" id="Path" fill="#8C4534"></path>
                            <ellipse id="Oval" fill="#F4E9D3" cx="16" cy="10" rx="3" ry="2"></ellipse>
                            <path d="M15.9999652,10.510644 C14.6903421,10.510644 13.5773854,9.8795555 13.1681631,9 C13.059655,9.23320391 13,9.48359888 13,9.744678 C13,10.9902263 14.3431442,12 16.0000348,12 C17.6568558,12 19,10.9903066 19,9.744678 C19,9.48359888 18.940345,9.23320391 18.8318369,9 C18.4225449,9.8795555 17.3095882,10.510644 15.9999652,10.510644 Z" id="Path" fill="#E5D6BE"></path>
                        </g>
                    </g>
                </g>
            </g>
        </g>
    </g>
</svg>