<?xml version="1.0" encoding="UTF-8"?>
<svg width="53px" height="52px" viewBox="0 0 53 52" version="1.1" xmlns="http://www.w3.org/2000/svg" xmlns:xlink="http://www.w3.org/1999/xlink">
    <title>@1.5xFish</title>
    <g id="Resturant/AppUser" stroke="none" stroke-width="1" fill="none" fill-rule="evenodd">
        <g id="B01" transform="translate(-214.000000, -678.000000)">
            <g id="Group-2" transform="translate(29.000000, 574.000000)">
                <g id="Group-Copy-6" transform="translate(185.000000, 104.000000)">
                    <g id="Fish" transform="translate(0.500000, 0.000000)">
                        <circle id="Oval-Copy-5" fill="#F0BE97" opacity="0.200000003" cx="26" cy="26" r="26"></circle>
                        <g id="fish" transform="translate(12.500000, 14.000000)" fill-rule="nonzero">
                            <path d="M17.4464647,5.39838809 C19.7479793,7.69990272 21.2409888,10.6859217 21.7014917,13.9079422 L23,23 L13.9079422,21.7009917 C10.6859217,21.2404888 7.69990272,19.7474793 5.39838809,17.4459647 C3.1358737,15.1834503 1.65386428,12.2584317 1.16736119,9.0964116 L0.0163538689,1.61386403 C-0.0516465635,1.17286122 0.094854368,0.72585838 0.410356374,0.410356374 C0.72585838,0.094854368 1.17286122,-0.0516465635 1.61386403,0.0163538689 L9.0969116,1.16736119 C12.2589317,1.65386428 15.1839503,3.1358737 17.4464647,5.39838809 Z" id="Path" fill="#DB9B7C"></path>
                            <path d="M1.2551163,9.44999234 C1.19987744,9.18951252 1.15225773,8.92760411 1.11178097,8.66331472 L0.0155752311,1.53702499 C-0.0491875756,1.11701914 0.0903381771,0.691298928 0.390818552,0.390818552 C0.691298928,0.0903381771 1.11701914,-0.0491875756 1.53702499,0.0155752311 L8.66379091,1.11178097 C8.92760411,1.15225773 9.18998872,1.20035364 9.45046854,1.2555925 C9.80333059,2.03417477 10,2.89894872 10,3.80943759 C10,7.22853283 7.22853283,10 3.80943759,10 C2.89847252,10 2.03369858,9.80333059 1.2551163,9.44999234 Z" id="Path" fill="#EFBE9A"></path>
                            <path d="M15,21.5255595 L13.7594762,21.3597005 C10.4286699,20.9143474 7.34183322,19.4704555 4.96261199,17.2446571 C4.226051,16.5560764 3.56960717,15.803183 3,15 L3,16.6726128 C3,17.9569319 3.73139214,19.1440567 4.91971054,19.7876669 L9.95675396,22.5158778 C11.6035493,23.4070676 13.6995176,23.0390831 14.8883529,21.6488657 L15,21.5255595 Z" id="Path" fill="#E47C6E"></path>
                            <path d="M22.354235,18.9896841 L23.122067,17.4010316 C24.2159783,15.1372018 24.2912657,12.4901354 23.327487,10.1633785 L22.5202662,8.21470019 C21.2259209,5.09103804 18.2777452,3.05157963 15,3.00103159 L15.0004986,3 C15.8286602,3.56840748 16.6044697,4.22346873 17.3149636,4.9584784 C19.6099835,7.33268859 21.0987798,10.4130239 21.5579833,13.736815 L22.2844321,19 L22.354235,18.9896841 Z" id="Path" fill="#E47C6E"></path>
                            <path d="M30,23.1048445 C28.297427,22.0833007 26.2675993,21.7539244 24.3289998,22.1846064 L22.5744479,22.5744479 L22.1846064,24.3289998 C21.7539244,26.2675993 22.0833007,28.297427 23.1048445,30 L25.2264308,25.2264308 L30,23.1048445 Z" id="Path" fill="#E47C6E"></path>
                            <path d="M5,4 C4.4485,4 4,3.5515 4,3 C4,2.4485 4.4485,2 5,2 C5.5515,2 6,2.4485 6,3 C5.9995,3.5515 5.551,4 5,4 Z" id="Path" fill="#606060"></path>
                            <path d="M0.511661808,4.46334962 L0,4 L0.241982507,5.43802754 C1.52964043,6.44602399 3.14820214,7 4.86200194,7 L6,7 L6,6.111506 L4.86200194,6.111506 C3.21865889,6.111506 1.67444121,5.5264327 0.511661808,4.46334962 Z" id="Path" fill="#DB9B7C"></path>
                            <path d="M13.2857143,8 L11,8 L11,7.14273468 L13.0485714,7.14273468 L13.8571429,6.53664809 L13.8571429,5 L15,5 L15,6.71453065 C15,6.82854694 14.94,6.93741963 14.8331429,7.01800257 L13.6902857,7.8752679 C13.5828571,7.95499357 13.4371429,8 13.2857143,8 Z" id="Path" fill="#EFBE9A"></path>
                            <path d="M7.28571429,14 L5,14 L5,13.1427347 L7.04857143,13.1427347 L7.85714286,12.5366481 L7.85714286,11 L9,11 L9,12.7145306 C9,12.8285469 8.94,12.9374196 8.83314286,13.0180026 L7.69028571,13.8752679 C7.58285714,13.9549936 7.43714286,14 7.28571429,14 L7.28571429,14 Z" id="Path" fill="#EFBE9A"></path>
                            <path d="M11.2857143,13 L9,13 L9,12.1427347 L11.0485714,12.1427347 L11.8571429,11.5366481 L11.8571429,10 L13,10 L13,11.7145306 C13,11.8285469 12.94,11.9374196 12.8331429,12.0180026 L11.6902857,12.8752679 C11.5828571,12.9549936 11.4371429,13 11.2857143,13 L11.2857143,13 Z" id="Path" fill="#EFBE9A"></path>
                            <path d="M16.2857143,11 L14,11 L14,10.1427347 L16.0485714,10.1427347 L16.8571429,9.53664809 L16.8571429,8 L18,8 L18,9.71453065 C18,9.82854694 17.94,9.93741963 17.8331429,10.0180026 L16.6902857,10.8752679 C16.5828571,10.9549936 16.4371429,11 16.2857143,11 L16.2857143,11 Z" id="Path" fill="#EFBE9A"></path>
                            <path d="M10.2857143,17 L8,17 L8,16.1427347 L10.0485714,16.1427347 L10.8571429,15.5366481 L10.8571429,14 L12,14 L12,15.7145306 C12,15.8285469 11.94,15.9374196 11.8331429,16.0180026 L10.6902857,16.8752679 C10.5828571,16.9549936 10.4371429,17 10.2857143,17 L10.2857143,17 Z" id="Path" fill="#EFBE9A"></path>
                            <path d="M14.2857143,16 L12,16 L12,15.1427347 L14.0485714,15.1427347 L14.8571429,14.5366481 L14.8571429,13 L16,13 L16,14.7145306 C16,14.8285469 15.94,14.9374196 15.8331429,15.0180026 L14.6902857,15.8752679 C14.5828571,15.9549936 14.4371429,16 14.2857143,16 L14.2857143,16 Z" id="Path" fill="#EFBE9A"></path>
                            <path d="M19.49975,14 L18,14 L18,12.9998333 L19.2927845,12.9998333 L19.9996667,12.2927155 L19.9996667,11 L20.9995001,11 L21,12.50025 C21,12.6327721 20.9475087,12.7602934 20.8535244,12.8543091 L19.8536911,13.8544757 C19.7597067,13.9474912 19.632228,14 19.49975,14 L19.49975,14 Z" id="Path" fill="#EFBE9A"></path>
                            <path d="M13.49975,20 L12,20 L12,18.9998333 L13.2927845,18.9998333 L13.9996667,18.2927155 L13.9996667,17 L14.9995001,17 L15,18.50025 C15,18.6327721 14.9475087,18.7602934 14.8535244,18.8543091 L13.8536911,19.8544757 C13.7597067,19.9474912 13.632228,20 13.49975,20 L13.49975,20 Z" id="Path" fill="#EFBE9A"></path>
                            <path d="M17.2857143,19 L15,19 L15,18.1427347 L17.0485714,18.1427347 L17.8571429,17.5366481 L17.8571429,16 L19,16 L19,17.7145306 C19,17.8285469 18.94,17.9374196 18.8331429,18.0180026 L17.6902857,18.8752679 C17.5828571,18.9549936 17.4371429,19 17.2857143,19 L17.2857143,19 Z" id="Path" fill="#EFBE9A"></path>
                            <g id="Group" transform="translate(5.000000, 6.000000)" fill="#C66B60">
                                <path d="M17.479,2.57074368 C17.3235,2.21429603 17.143,1.87405054 16.942,1.5485343 L12.766,0.010801444 C13.2035,0.485574007 13.61,0.983422383 13.979,1.50631047 L17.596,2.83832491 L17.479,2.57074368 Z" id="Path"></path>
                                <path d="M15.5445,4.32843321 L18.688,5.61085921 C18.5825,5.20924188 18.4575,4.81155235 18.289,4.42515523 L18.2675,4.37556679 L14.9055,3.00378339 C15.138,3.43584116 15.356,3.87575451 15.5445,4.32843321 L15.5445,4.32843321 Z" id="Path"></path>
                                <path d="M16.3575,6.99393502 L18.946,8.05002166 C18.9635,7.69406498 18.963,7.33712635 18.9335,6.98166065 L16.062,5.81019495 C16.177,6.19953791 16.275,6.59428159 16.3575,6.99393502 Z" id="Path"></path>
                                <path d="M5.872,16.9970542 L5.3865,14.6128809 C5.0075,14.4675523 4.6345,14.3079856 4.269,14.1331986 L4.748,16.4844765 L5.0425,16.6518989 C5.308,16.8036101 5.587,16.9160433 5.872,16.9970542 L5.872,16.9970542 Z" id="Path"></path>
                                <path d="M0.0415,11.1259783 L1.1705,14.4513502 L2.4765,15.193704 L1.5445,12.4481733 C1.0815,12.0897617 0.6315,11.7136751 0.2115,11.3007653 C0.153,11.2438123 0.0985,11.1839134 0.0415,11.1259783 L0.0415,11.1259783 Z" id="Path"></path>
                            </g>
                        </g>
                    </g>
                </g>
            </g>
        </g>
    </g>
</svg>