<?xml version="1.0" encoding="UTF-8"?>
<svg width="52px" height="52px" viewBox="0 0 52 52" version="1.1" xmlns="http://www.w3.org/2000/svg" xmlns:xlink="http://www.w3.org/1999/xlink">
    <title>@1.5xCleaning</title>
    <g id="Resturant/AppUser" stroke="none" stroke-width="1" fill="none" fill-rule="evenodd">
        <g id="B01" transform="translate(-215.000000, -574.000000)">
            <g id="Group-2" transform="translate(29.000000, 574.000000)">
                <g id="Group-Copy-2" transform="translate(182.000000, 0.000000)">
                    <g id="Cleaning" transform="translate(4.000000, 0.000000)">
                        <circle id="Oval-Copy-5" fill="#3980B0" opacity="0.200000003" cx="26" cy="26" r="26"></circle>
                        <g id="cleaning" transform="translate(11.996094, 12.000000)" fill-rule="nonzero">
                            <g id="Group" transform="translate(0.003906, 11.000000)" fill="#4398D1">
                                <polygon id="Path" points="17.4786613 17.9619677 3.52534677 17.9619677 1.53204032 2.07232258 19.4719677 2.07232258"></polygon>
                                <rect id="Rectangle" x="0.0370322581" y="0.0220645161" width="20.93" height="2.05025806"></rect>
                            </g>
                            <polygon id="Path" fill="#398CC4" points="2.00390625 13 2.27623761 15 20.7315749 15 21.0039062 13"></polygon>
                            <polygon id="Path" fill="#726891" points="10.0039062 11 3.00390625 11 3.00390625 5.8571521 5.00389007 3 8.00392243 3 10.0039062 5.8571521"></polygon>
                            <rect id="Rectangle" fill="#E8594A" x="5.00390625" y="0" width="3" height="4"></rect>
                            <rect id="Rectangle" fill="#7A709C" x="3.00390625" y="6" width="7" height="5"></rect>
                            <polygon id="Rectangle" fill="#E66712" transform="translate(18.637341, 4.092235) rotate(-26.526615) translate(-18.637341, -4.092235) " points="18.1201498 1.72869267 19.1545326 1.72869267 19.1545326 6.45577659 18.1201498 6.45577659"></polygon>
                            <g id="Group" transform="translate(12.003906, 0.000000)" fill="#F77219">
                                <rect id="Rectangle" x="6.99080625" y="0" width="1.9861875" height="1.98929577"></rect>
                                <path d="M4.50781875,3.97864789 L0.03886875,3.97864789 C0.03886875,1.78140845 1.81749375,0 4.01124375,0 L6.99058125,0 L6.99058125,1.98929577 L4.50781875,3.97864789 Z" id="Path"></path>
                            </g>
                            <rect id="Rectangle" fill="#D4D4D4" x="14.0039062" y="5" width="3" height="2"></rect>
                            <polygon id="Path" fill="#EBEBEB" points="13.5038658 6 16.5038982 6 19.0039062 8.77779176 19.0039062 11 12.0039062 11 12.0039062 7.66668764"></polygon>
                            <path d="M25.5039582,22 L24.7209579,22 C24.2494812,22 23.7844615,22.1099956 23.3624321,22.3204712 C22.5074416,22.7484459 21.5004276,22.7484459 20.6454371,22.3204712 C20.2234643,22.1099956 19.7584446,22 19.2869112,22 L18.5039062,22 C17.1234086,22 16.0039062,23.119497 16.0039062,24.5 L16.0039062,27.5 C16.0039062,28.880503 17.1234086,30 18.5039062,30 L19.2869112,30 C19.7583879,30 20.2234076,29.8900044 20.6454371,29.6795288 C21.5004276,29.2515541 22.5074416,29.2515541 23.3624321,29.6795288 C23.7844049,29.8900044 24.2494246,30 24.7209013,30 L25.5039062,30 C26.8844039,30 28.0039062,28.880503 28.0039062,27.5 L28.0039062,24.5 C28.0039062,23.119497 26.8844606,22 25.5039582,22 Z" id="Path" fill="#F5A338"></path>
                            <path d="M25.5039582,27 L24.7209579,27 C24.2494812,27 23.7844615,26.8680049 23.3624321,26.6154334 L23.3624321,26.6154334 C22.5074416,26.1018623 21.5004276,26.1018623 20.6454371,26.6154334 L20.6454371,26.6154334 C20.2234643,26.8680049 19.7584446,27 19.2869112,27 L18.5039062,27 C17.1234086,27 16.0039062,25.6565998 16.0039062,24 L16.0039062,24 C16.0039062,22.3434002 17.1234086,21 18.5039062,21 L19.2869112,21 C19.7583879,21 20.2234076,21.1319951 20.6454371,21.3845666 L20.6454371,21.3845666 C21.5004276,21.8981377 22.5074416,21.8981377 23.3624321,21.3845666 L23.3624321,21.3845666 C23.7844049,21.1319951 24.2494246,21 24.7209013,21 L25.5039062,21 C26.8844039,21 28.0039062,22.3434002 28.0039062,24 L28.0039062,24 C28.0039062,25.6566677 26.8844606,27 25.5039582,27 Z" id="Path" fill="#F9B44D"></path>
                            <g id="Group" transform="translate(18.003906, 23.000000)" fill="#F5A338">
                                <rect id="Rectangle" x="6.95837762" y="0.0177777778" width="1" height="1.30777778"></rect>
                                <rect id="Rectangle" x="2.01963636" y="0.0177777778" width="1" height="1.30777778"></rect>
                                <rect id="Rectangle" x="0.0442517483" y="0.671851852" width="1" height="1.30777778"></rect>
                                <rect id="Rectangle" x="4.98299301" y="0.671851852" width="1" height="1.30777778"></rect>
                            </g>
                            <path d="M14.2659369,15.0000218 L14.2659369,11 L6.00390625,11 L6.00390625,22.4999848 C6.00390625,23.328468 6.69737609,24 7.55305528,24 L12.7168464,24 C13.5724671,24 14.2659954,23.3285247 14.2659954,22.4999848 L14.2659954,17.4999717 L16.3624913,18.5149727 C16.9155123,18.7829965 17.5878651,18.5659494 17.8646096,18.0309781 C17.8646096,18.0304683 17.8651361,18.0304683 17.8651361,18.0299586 L17.8780637,18.00498 C18.1672093,17.4554521 17.9410638,16.7829573 17.3740623,16.5034921 C17.372015,16.5024726 17.3694411,16.5009999 17.3668088,16.4999804 L14.2659369,15.0000218 Z" id="Path" fill="#97D3E6"></path>
                            <path d="M17.3656545,16.500037 L14.2591646,15.0000218 L14.2591646,11 L13.8670588,11 C11.9892176,16.9674926 8.69391209,20.6145296 6.00390625,22.7204869 C6.11513277,23.4550033 6.76643497,23.9994902 7.53412067,24 L12.7072674,24 C13.5644383,24 14.2592232,23.3285247 14.2592232,22.4999848 L14.2592232,17.4999717 L16.3595175,18.5149727 C16.9135404,18.7829965 17.5871113,18.5659494 17.8643572,18.0309781 C17.8643572,18.0304683 17.8648846,18.0304683 17.8648846,18.0299586 L17.8778357,18.00498 C18.1675052,17.4554521 17.94095,16.7829573 17.3729212,16.5034921 C17.3703427,16.5025292 17.368233,16.5009999 17.3656545,16.500037 Z" id="Path" fill="#8AC9DE"></path>
                            <g id="Group" transform="translate(6.003906, 19.000000)" fill="#7DBDD1">
                                <rect id="Rectangle" x="0.0277078652" y="0.0417977528" width="1.19022472" height="5.95146067"></rect>
                                <rect id="Rectangle" x="2.4081573" y="0.0417977528" width="1.19022472" height="5.95146067"></rect>
                                <rect id="Rectangle" x="4.78860674" y="0.0417977528" width="1.19022472" height="5.95146067"></rect>
                            </g>
                        </g>
                    </g>
                </g>
            </g>
        </g>
    </g>
</svg>