<?xml version="1.0" encoding="UTF-8"?>
<svg width="53px" height="52px" viewBox="0 0 53 52" version="1.1" xmlns="http://www.w3.org/2000/svg" xmlns:xlink="http://www.w3.org/1999/xlink">
    <title>@1.5xEdible Oils</title>
    <g id="Resturant/AppUser" stroke="none" stroke-width="1" fill="none" fill-rule="evenodd">
        <g id="B01" transform="translate(-40.000000, -678.000000)">
            <g id="Group-2" transform="translate(29.000000, 574.000000)">
                <g id="Group-Copy-4" transform="translate(2.000000, 104.000000)">
                    <g id="Edible-Oils" transform="translate(9.500000, 0.000000)">
                        <circle id="Oval-Copy-5" fill="#0FBCF9" opacity="0.200000003" cx="26" cy="26" r="26"></circle>
                        <g id="olive-oil" transform="translate(9.000000, 11.000000)" fill-rule="nonzero">
                            <g id="Group" transform="translate(0.000000, 10.743243)">
                                <path d="M14.0141892,0.0567567568 C11.9632432,0.0567567568 10.2946622,1.72533784 10.2946622,3.77628378 L10.2946622,5.28716216 L12.6125,5.28716216 C14.6634459,5.28716216 16.332027,3.61858108 16.332027,1.56763514 L16.332027,0.0567567568 L14.0141892,0.0567567568 Z" id="Path" fill="#19A995"></path>
                                <path d="M4.37709459,3.2752027 L0,3.2752027 L0,4.93689189 C0,7.24824324 1.88040541,9.12871622 4.19182432,9.12871622 L8.56891892,9.12871622 L8.56891892,7.46709459 C8.56891892,5.15560811 6.68844595,3.2752027 4.37709459,3.2752027 L4.37709459,3.2752027 Z" id="Path" fill="#19A995"></path>
                                <g fill="#0D7579" id="Path">
                                    <path d="M0,3.2752027 L0,4.93689189 C0,7.24824324 1.88040541,9.12871622 4.19182432,9.12871622 L8.56891892,9.12871622 L0,3.2752027 Z"></path>
                                    <path d="M10.2946622,5.28716216 L12.6125,5.28716216 C14.6634459,5.28716216 16.332027,3.61858108 16.332027,1.56763514 L16.332027,0.0567567568 L10.2946622,5.28716216 Z"></path>
                                </g>
                            </g>
                            <g id="Group" transform="translate(16.959459, 3.986486)">
                                <path d="M1.22385135,0.0581756757 L1.22385135,2.08810811 L2.89216216,2.08810811 L2.89216216,7.29054054 L0.638445946,11.4610135 C0.428513514,11.8494595 0.232702703,12.2433784 0.0480405405,12.6413514 L6.13047297,12.6413514 L6.88114865,6.9027027 L6.13040541,0.0581756757 L1.22385135,0.0581756757 Z" id="Path" fill="#FFF5F5"></path>
                                <path d="M13.5653378,1.67594595 L9.83777027,1.67594595 L9.83777027,0.0581756757 L6.13040541,0.0581756757 L6.13040541,12.6414189 L12.6825676,12.6414189 C12.497973,12.2422297 12.3008784,11.8485135 12.0914865,11.4610811 L9.83777027,7.29060811 L9.83777027,3.70587838 L13.5653378,3.70587838 C14.6900676,3.70587838 15.6051351,4.62094595 15.6051351,5.74567568 L15.6051351,6.60567568 C15.6051351,7.63574324 14.7671622,8.47371622 13.7370946,8.47371622 L13.7370946,10.5037162 C15.8864865,10.5037162 17.6350676,8.75506757 17.6350676,6.60574324 L17.6350676,5.74574324 C17.6350676,3.50162162 15.8094595,1.67594595 13.5653378,1.67594595 L13.5653378,1.67594595 Z" id="Path" fill="#EBEBF0"></path>
                            </g>
                            <g id="Group" transform="translate(15.135135, 0.000000)">
                                <path d="M1.87236486,16.6279054 C0.886418919,18.7529054 0.260540541,21.0089865 0.0112162162,23.3532432 L0.354256757,29.9885811 L7.95472973,29.9885811 L9.86331081,23.1391216 L7.95472973,16.6279054 L1.87236486,16.6279054 Z" id="Path" fill="#FEF176"></path>
                                <polygon id="Path" fill="#C8885E" points="4.93722973 0.0113513514 5.60324324 4.04466216 7.95472973 4.79290541 7.95472973 0.0113513514"></polygon>
                                <polygon id="Path" fill="#A97450" points="10.9722973 0.0113513514 7.95472973 0.0113513514 7.95472973 4.79290541 10.3062838 4.04466216"></polygon>
                            </g>
                            <polygon id="Path" fill="#A97450" points="20.7383784 4.04466216 21.0765541 6.09277027 23.0898649 6.09277027 23.8405405 5.20027027 23.0898649 4.04466216"></polygon>
                            <polygon id="Path" fill="#885142" points="25.4414189 4.04466216 23.0898649 4.04466216 23.0898649 6.09277027 25.1031757 6.09277027"></polygon>
                            <path d="M31.6224324,25.6146622 C31.6224324,22.5166216 30.9407432,19.4360135 29.642027,16.6279054 L23.0898649,16.6279054 L23.0898649,29.9886486 L31.6224324,29.9886486 L31.6224324,25.6146622 Z" id="Path" fill="#FECB2E"></path>
                            <path d="M9.49777027,11.6809459 C9.27939189,11.3566892 9.02844595,11.0510135 8.74587838,10.7683784 L6.97905405,9.00155405 L5.54364865,10.4369595 L7.31047297,12.2037838 C8.0752027,12.9685135 8.49628378,13.9852027 8.49628378,15.0666216 L8.49628378,21.7397973 L9.49777027,21.7397973 L10.5262838,21.7397973 L10.5262838,15.0666216 C10.5262838,13.8426351 10.1665541,12.6740541 9.49777027,11.6809459 Z" id="Path" fill="#F2E3CB"></path>
                            <g id="Group" transform="translate(6.013514, 21.351351)">
                                <path d="M3.48425676,0.0138513514 C1.59283784,0.0138513514 0.059527027,1.54716216 0.059527027,3.43858108 L0.059527027,5.2125 C0.059527027,7.10391892 1.59283784,8.63722973 3.48425676,8.63722973 L4.0025,4.17459459 L3.48425676,0.0138513514 Z" id="Path" fill="#92E170"></path>
                                <path d="M3.48425676,0.0138513514 L3.48425676,8.6372973 C5.37567568,8.6372973 6.90898649,7.10398649 6.90898649,5.21256757 L6.90898649,3.43864865 C6.90905405,1.54716216 5.37574324,0.0138513514 3.48425676,0.0138513514 Z" id="Path" fill="#1FC979"></path>
                            </g>
                            <path d="M13.587027,23.1391216 C11.6956081,23.1391216 10.1622973,24.6724324 10.1622973,26.5638514 C10.1622973,28.4552703 11.6956081,29.9885811 13.587027,29.9885811 L14.5039189,29.9885811 L15.5314189,26.5638514 L14.5039189,23.1391216 L13.587027,23.1391216 Z" id="Path" fill="#92E170"></path>
                            <path d="M15.3610135,23.1391216 L14.5039865,23.1391216 L14.5039865,29.9886486 L15.3610135,29.9886486 C17.2524324,29.9886486 18.7857432,28.4553378 18.7857432,26.5639189 C18.7857432,24.6724324 17.2524324,23.1391216 15.3610135,23.1391216 Z" id="Path" fill="#1FC979"></path>
                        </g>
                    </g>
                </g>
            </g>
        </g>
    </g>
</svg>