<?xml version="1.0" encoding="UTF-8"?>
<svg width="53px" height="52px" viewBox="0 0 53 52" version="1.1" xmlns="http://www.w3.org/2000/svg" xmlns:xlink="http://www.w3.org/1999/xlink">
    <title>@1.5xGrocery</title>
    <g id="Resturant/AppUser" stroke="none" stroke-width="1" fill="none" fill-rule="evenodd">
        <g id="B01" transform="translate(-298.000000, -574.000000)">
            <g id="Group-2" transform="translate(29.000000, 574.000000)">
                <g id="Group-Copy-3" transform="translate(268.000000, 0.000000)">
                    <g id="Grocery" transform="translate(1.500000, 0.000000)">
                        <circle id="Oval-Copy-5" fill="#3C40C6" opacity="0.200000003" cx="26" cy="26" r="26"></circle>
                        <g id="shopping-bag" transform="translate(14.000000, 11.000000)" fill-rule="nonzero">
                            <path d="M11.5204678,7.01754386 C9.09812865,7.01754386 7.13450292,8.98116959 7.13450292,11.4035088 C7.13450292,13.825731 9.09812865,15.8479532 11.5204678,15.8479532 C13.942807,15.8479532 15.9064327,13.825731 15.9064327,11.4035088 C15.9064327,8.98116959 13.942807,7.01754386 11.5204678,7.01754386 Z" id="Path" fill="#E6455D"></path>
                            <path d="M15.9064327,11.4035088 C15.9064327,8.98116959 13.942807,7.01754386 11.5204678,7.01754386 L11.5204678,15.8479532 C13.942807,15.8479532 15.9064327,13.825731 15.9064327,11.4035088 Z" id="Path" fill="#AC273B"></path>
                            <path d="M8.42461988,1.79637427 C7.79923977,0.687894737 6.63339181,0 5.38011696,0 C4.12684211,0 2.96099415,0.687894737 2.33561404,1.79637427 L2.33473684,1.79637427 C1.04982456,2.00023392 0.116959064,3.08988304 0.116959064,4.38596491 C0.116959064,5.09099415 0.393625731,5.7548538 0.896491228,6.2551462 C2.65602339,8.00695906 3.62573099,10.1476608 3.62573099,12.2807018 L3.62573099,17.6032164 L5.38011696,17.7865497 L7.13450292,17.969883 L7.13450292,12.2807018 C7.13450292,10.1262573 8.08023392,8.04122807 9.8697076,6.24912281 C10.3683041,5.7505848 10.6432749,5.08842105 10.6432749,4.38596491 C10.6432749,3.08988304 9.71040936,2.00023392 8.42461988,1.79637427 Z" id="Path" fill="#8CD96B"></path>
                            <path d="M7.13450292,12.2807018 C7.13450292,10.1262573 8.08023392,8.04122807 9.8697076,6.24912281 C10.3683041,5.7505848 10.6432749,5.08842105 10.6432749,4.38596491 C10.6432749,3.08988304 9.71040936,2.00023392 8.42461988,1.79637427 C7.79923977,0.687894737 6.63339181,0 5.38011696,0 L5.38011696,17.7864912 L7.13450292,17.9698246 L7.13450292,12.2807018 Z" id="Path" fill="#59C36A"></path>
                            <path d="M21.1695906,2.63157895 C21.1695906,1.17818713 19.9914035,0 18.5380117,0 C17.0846199,0 15.9064327,1.17818713 15.9064327,2.63157895 L15.9064327,13.1578947 C15.9064327,14.6112865 17.0846199,15.8479532 18.5380117,15.8479532 C19.9914035,15.8479532 21.1695906,14.6112865 21.1695906,13.1578947 L21.1695906,8.77192982 L20.2923977,7.89473684 L21.1695906,7.01754386 L21.1695906,5.26315789 L20.2923977,4.38596491 L21.1695906,3.50877193 L21.1695906,2.63157895 Z" id="Path" fill="#FFCC66"></path>
                            <path d="M21.1695906,13.1578947 L21.1695906,8.77192982 L20.2923977,7.89473684 L21.1695906,7.01754386 L21.1695906,5.26315789 L20.2923977,4.38596491 L21.1695906,3.50877193 L21.1695906,2.63157895 C21.1695906,1.17818713 19.9914035,0 18.5380117,0 L18.5380117,15.8479532 C19.9914035,15.8479532 21.1695906,14.6112865 21.1695906,13.1578947 Z" id="Path" fill="#FFA64D"></path>
                            <g id="Group" transform="translate(18.538012, 3.508772)" fill="#FFEA80">
                                <polygon id="Path" points="0 3.50877193 2.63157895 3.50877193 2.63157895 5.26315789 0 5.26315789"></polygon>
                                <polygon id="Path" points="0 0 2.63157895 0 2.63157895 1.75438596 0 1.75438596"></polygon>
                            </g>
                            <polygon id="Path" fill="#59C36A" points="6.51432749 2.88859649 5.38011696 4.02274854 4.24590643 2.88859649 3.00555556 4.12894737 4.50292398 5.62637427 4.50292398 9.64912281 5.38011696 9.64912281 6.25730994 9.64912281 6.25730994 5.62637427 7.75467836 4.12894737"></polygon>
                            <polygon id="Path" fill="#00A66C" points="6.25730994 5.62637427 7.75467836 4.12894737 6.51432749 2.88859649 5.38011696 4.02274854 5.38011696 9.64912281 6.25730994 9.64912281"></polygon>
                            <polygon id="Path" fill="#F0F7FF" points="18.5380117 10.4226901 15.0292398 12.177076 11.5204678 10.4226901 8.01169591 12.177076 4.50292398 10.4226901 0.0544444444 12.6464912 1.82982456 28.7426901 3.11175439 29.9415205 11.5204678 29.9415205 19.9291813 29.9415205 21.2111111 28.7426901 22.9864912 12.6464912"></polygon>
                            <polygon id="Path" fill="#DFE7F4" points="21.2111111 28.7426901 22.9864912 12.6464912 18.5380117 10.4226901 15.0292398 12.177076 11.5204678 10.4226901 11.5204678 29.9415205 19.9291813 29.9415205"></polygon>
                            <g id="Group" transform="translate(1.812865, 24.912281)">
                                <polygon id="Path" fill="#DFE7F4" points="3.82426901 0.0230994152 0.0169590643 3.83040936 0.150116959 5.02923977 1.29888889 5.02923977 5.06461988 1.26345029"></polygon>
                                <polygon id="Path" fill="#C7CFE1" points="19.3982456 3.83040936 15.5909357 0.0230994152 14.3505848 1.26345029 18.1163158 5.02923977 19.2650877 5.02923977"></polygon>
                            </g>
                            <ellipse id="Oval" fill="#FF8066" cx="11.5204678" cy="20.2339181" rx="4.38596491" ry="2.63157895"></ellipse>
                            <path d="M15.9064327,20.2339181 C15.9064327,18.7339766 14.0209942,17.6023392 11.5204678,17.6023392 L11.5204678,22.8654971 C14.0209942,22.8654971 15.9064327,21.7338596 15.9064327,20.2339181 Z" id="Path" fill="#E6455D"></path>
                        </g>
                    </g>
                </g>
            </g>
        </g>
    </g>
</svg>