<?xml version="1.0" encoding="UTF-8"?>
<svg width="53px" height="52px" viewBox="0 0 53 52" version="1.1" xmlns="http://www.w3.org/2000/svg" xmlns:xlink="http://www.w3.org/1999/xlink">
    <title>@1.5xSpice</title>
    <g id="Resturant/AppUser" stroke="none" stroke-width="1" fill="none" fill-rule="evenodd">
        <g id="B01" transform="translate(-294.000000, -678.000000)">
            <g id="Group-2" transform="translate(29.000000, 574.000000)">
                <g id="Group-Copy-7" transform="translate(265.000000, 104.000000)">
                    <g id="Spice" transform="translate(0.500000, 0.000000)">
                        <circle id="Oval-Copy-5" fill="#F64343" opacity="0.200000003" cx="26" cy="26" r="26"></circle>
                        <g id="spice" transform="translate(9.000000, 8.500000)" fill-rule="nonzero">
                            <path d="M19.5,17.1153846 L30.6783884,15.5 L31.5,15.8338462 L31.3770377,16.4153846 C30.6560927,19.949182 27.4413096,22.498154 23.7030741,22.5 L22.8535165,22.5 L19.5,17.1153846 Z" id="Shape" fill="#805333"></path>
                            <path d="M11.5,10.5 L11.5,13.2798817 L23.424,19.5 C27.1695,19.3189349 30.376,18.0142012 32.1085,16.1556213 C32.9716061,15.2983697 33.4685837,14.1571724 33.5,12.960355 L33.5,10.5 L11.5,10.5 Z" id="Shape" fill="#A56A43"></path>
                            <path d="M12.2586077,12.3126316 C11.764829,11.5934083 11.5004414,10.7425869 11.5,9.87136842 C11.5,6.78968421 15.0621578,4.20610526 19.8391872,3.5 L28.8765134,4.52905263 C31.9988986,5.87010526 34.4451334,8.50842105 33.1423072,11.5463158 C31.9219384,14.3981053 27.6451502,16.5 22.4943141,16.5 C21.8016723,16.5 21.6092718,16.4726316 21.548803,16.4726316 L12.2586077,12.3126316 Z" id="Shape" fill="#CB8252"></path>
                            <path d="M30.1955298,10.254175 C29.1888809,12.120335 25.6712652,13.4996707 21.4297672,13.4996707 C19.9518753,13.5088302 18.4794702,13.3268776 17.0525412,12.9587547 L13.0938097,10.8491825 C12.8287909,10.5624776 12.626841,10.2276684 12.5,9.86471549 C14.0721819,8.92352173 16.5096295,7.16013573 16.911158,5.42920468 C17.4710357,3.01671954 21.9161256,0.252639019 24.2574326,0.517687836 C26.9946126,0.858464886 28.4310666,4.76928722 29.8618653,7.58205017 C29.9466953,7.74973412 30.3595344,8.55028973 30.4273984,8.58815384 C30.5767939,9.15136078 30.493762,9.74796105 30.1955298,10.254175 Z" id="Shape" fill="#C03A2B"></path>
                            <path d="M17.5,6.5 C17.1402376,8.06097561 15.0016497,9.65609756 13.6025735,10.5 C12.9679925,8.49512195 15.4013857,7.08536585 17.5,6.5 Z" id="Shape" fill="#805333"></path>
                            <g id="Group" transform="translate(20.500000, 4.500000)" fill="#E64C3C">
                                <ellipse id="Oval" cx="1.48779543" cy="1.611994" rx="1" ry="1"></ellipse>
                                <ellipse id="Oval" cx="4.46338628" cy="3.22398801" rx="1" ry="1"></ellipse>
                                <ellipse id="Oval" cx="3.96745448" cy="6.44797601" rx="1" ry="1"></ellipse>
                                <ellipse id="Oval" cx="0.495931809" cy="4.83598201" rx="1" ry="1"></ellipse>
                                <ellipse id="Oval" cx="4.46338628" cy="0.537331334" rx="1" ry="1"></ellipse>
                            </g>
                            <path d="M21.5,26.5 L21.3740698,27.1106604 C20.6357236,30.8214214 17.3433465,33.4980395 13.5148827,33.5 L9.50801374,33.5 C5.67093922,33.5088625 2.36592888,30.829779 1.62593017,27.1106604 L1.5,26.5 L21.5,26.5 Z" id="Shape" fill="#805333"></path>
                            <path d="M0.5,20.5 L0.5,23.2176471 C0.5,27.2235294 5.45,30.5 11.5,30.5 C17.55,30.5 22.5,27.2529412 22.5,23.2470588 L22.5,20.5 L0.5,20.5 Z" id="Shape" fill="#CB8252"></path>
                            <path d="M8.83851478,14.5 C4.06187052,15.2075949 0.5,17.7966245 0.5,20.8848101 C0.5,24.5379747 5.44704239,27.5 11.4934275,27.5 C16.6163648,27.5 20.9202916,25.3936709 22.1405621,22.5632911 C23.4377865,19.5299578 21.0412193,16.8805907 17.8751122,15.5312236 L8.83851478,14.5 Z" id="Shape" fill="#CF976A"></path>
                            <path d="M21.2032345,21.2450818 C20.1964691,23.1166598 16.6784461,24.5 12.436457,24.5 C8.19446794,24.5 4.67644498,23.1166598 3.66967956,21.2450818 C3.6035534,21.1189007 3.54685099,20.9883758 3.5,20.8544916 C5.07236396,19.9105653 7.5100937,18.1420597 7.91166866,16.4061034 C8.47726721,13.9866141 12.9228718,11.2145088 15.2644498,11.523726 C18.0019467,11.8654924 19.438567,15.7876689 20.8695314,18.608598 C20.9543712,18.7767688 21.3672581,19.5796486 21.4351299,19.6176227 C21.572599,20.168842 21.489868,20.7494546 21.2032345,21.2450818 Z" id="Shape" fill="#F0C419"></path>
                            <path d="M7.5,16.5 C7.14023755,18.0609756 5.00164968,19.6560976 3.6025735,20.5 C2.96799252,18.495122 5.40138573,17.0853659 7.5,16.5 L7.5,16.5 Z" id="Shape" fill="#805333"></path>
                            <circle id="Oval" fill="#F29C1F" cx="12" cy="16" r="1"></circle>
                            <circle id="Oval" fill="#F29C1F" cx="16" cy="20" r="1"></circle>
                            <circle id="Oval" fill="#F29C1F" cx="13" cy="22" r="1"></circle>
                            <circle id="Oval" fill="#F29C1F" cx="8" cy="21" r="1"></circle>
                            <circle id="Oval" fill="#F29C1F" cx="14" cy="15" r="1"></circle>
                        </g>
                    </g>
                </g>
            </g>
        </g>
    </g>
</svg>